<?xml version="1.0" encoding="UTF-8" ?>
<svg width="1024pt" height="1536pt" viewBox="0 0 1024 1536" version="1.1" xmlns="http://www.w3.org/2000/svg">
<g>
<path fill="#070607" d="M 342.33 421.64 C 346.11 420.53 350.08 420.57 353.98 420.57 C 388.66 420.59 423.33 420.60 458.01 420.58 C 464.28 420.69 470.62 420.16 476.83 421.28 C 491.17 424.59 500.59 440.88 496.93 455.00 C 493.00 472.34 487.72 489.34 483.44 506.59 C 461.26 588.62 439.14 670.67 417.99 752.98 C 398.91 826.39 380.21 899.89 361.38 973.37 C 354.97 1000.03 347.62 1026.46 341.08 1053.10 C 339.58 1058.20 338.44 1063.44 336.30 1068.33 C 331.40 1078.59 320.41 1085.52 308.99 1085.22 C 253.33 1085.18 197.66 1085.32 142.00 1085.13 C 127.23 1085.65 112.49 1074.16 111.06 1059.11 C 110.27 1052.30 111.94 1045.51 114.22 1039.14 C 154.30 922.56 194.14 805.91 234.26 689.34 C 262.34 608.92 290.40 528.50 319.26 448.35 C 321.65 440.84 324.76 433.11 330.77 427.74 C 334.07 424.83 338.11 422.83 342.33 421.64 Z" />
<path fill="#070607" d="M 536.39 421.48 C 541.84 420.21 547.48 420.66 553.03 420.61 C 584.34 420.60 615.65 420.58 646.96 420.60 C 650.59 420.66 654.28 420.64 657.87 421.36 C 667.68 423.93 675.68 432.42 677.60 442.39 C 679.55 451.66 676.83 460.96 675.33 470.08 C 663.56 537.77 651.13 605.34 638.61 672.90 C 637.34 679.38 638.76 686.72 643.34 691.66 C 646.78 694.71 651.26 696.92 655.94 696.94 C 695.94 696.89 735.95 696.88 775.95 696.93 C 783.06 696.65 790.19 699.87 794.80 705.26 C 797.79 708.60 799.63 712.76 801.19 716.92 C 824.34 783.35 848.49 849.43 872.31 915.63 C 879.92 936.67 887.76 957.62 895.31 978.68 C 902.36 998.56 910.03 1018.21 916.93 1038.14 C 919.91 1046.41 923.50 1055.33 921.13 1064.23 C 918.17 1077.07 904.91 1085.75 892.04 1085.19 C 782.05 1085.29 672.07 1085.23 562.08 1085.20 C 554.92 1085.56 547.53 1083.70 541.88 1079.18 C 534.33 1073.42 531.41 1063.21 532.87 1054.07 C 534.56 1042.96 537.16 1032.02 539.05 1020.95 C 549.63 968.16 559.20 915.19 569.66 862.38 C 576.84 824.60 584.30 786.87 591.01 749.01 C 592.83 740.84 590.36 731.63 583.92 726.11 C 579.21 721.48 572.41 719.71 565.95 719.80 C 537.30 719.66 508.64 719.73 479.98 719.74 C 472.64 719.88 465.02 717.49 459.74 712.25 C 453.08 705.47 450.96 695.12 453.13 686.02 C 460.10 657.48 468.52 629.32 475.87 600.88 C 490.47 546.62 505.90 492.60 520.31 438.30 C 522.29 430.44 528.47 423.58 536.39 421.48 Z" />
</g>
</svg>
